<svg width="46" height="20" viewBox="0 0 46 20" fill="none" xmlns="http://www.w3.org/2000/svg">
<rect width="46" height="20" rx="10" fill="#999999"/>
<path d="M14.0754 14.084C13.5234 14.084 13.0274 13.988 12.5874 13.796C12.1554 13.596 11.8154 13.324 11.5674 12.98C11.3194 12.628 11.1914 12.224 11.1834 11.768H12.3474C12.3874 12.16 12.5474 12.492 12.8274 12.764C13.1154 13.028 13.5314 13.16 14.0754 13.16C14.5954 13.16 15.0034 13.032 15.2994 12.776C15.6034 12.512 15.7554 12.176 15.7554 11.768C15.7554 11.448 15.6674 11.188 15.4914 10.988C15.3154 10.788 15.0954 10.636 14.8314 10.532C14.5674 10.428 14.2114 10.316 13.7634 10.196C13.2114 10.052 12.7674 9.908 12.4314 9.764C12.1034 9.62 11.8194 9.396 11.5794 9.092C11.3474 8.78 11.2314 8.364 11.2314 7.844C11.2314 7.388 11.3474 6.984 11.5794 6.632C11.8114 6.28 12.1354 6.008 12.5514 5.816C12.9754 5.624 13.4594 5.528 14.0034 5.528C14.7874 5.528 15.4274 5.724 15.9234 6.116C16.4274 6.508 16.7114 7.028 16.7754 7.676H15.5754C15.5354 7.356 15.3674 7.076 15.0714 6.836C14.7754 6.588 14.3834 6.464 13.8954 6.464C13.4394 6.464 13.0674 6.584 12.7794 6.824C12.4914 7.056 12.3474 7.384 12.3474 7.808C12.3474 8.112 12.4314 8.36 12.5994 8.552C12.7754 8.744 12.9874 8.892 13.2354 8.996C13.4914 9.092 13.8474 9.204 14.3034 9.332C14.8554 9.484 15.2994 9.636 15.6354 9.788C15.9714 9.932 16.2594 10.16 16.4994 10.472C16.7394 10.776 16.8594 11.192 16.8594 11.72C16.8594 12.128 16.7514 12.512 16.5354 12.872C16.3194 13.232 15.9994 13.524 15.5754 13.748C15.1514 13.972 14.6514 14.084 14.0754 14.084ZM22.3783 14L19.7983 11.096V14H18.7063V5.12H19.7983V10.34L22.3303 7.424H23.8543L20.7583 10.7L23.8663 14H22.3783ZM25.6861 6.356C25.4781 6.356 25.3021 6.284 25.1581 6.14C25.0141 5.996 24.9421 5.82 24.9421 5.612C24.9421 5.404 25.0141 5.228 25.1581 5.084C25.3021 4.94 25.4781 4.868 25.6861 4.868C25.8861 4.868 26.0541 4.94 26.1901 5.084C26.3341 5.228 26.4061 5.404 26.4061 5.612C26.4061 5.82 26.3341 5.996 26.1901 6.14C26.0541 6.284 25.8861 6.356 25.6861 6.356ZM26.2141 7.424V14H25.1221V7.424H26.2141ZM29.4073 8.636C29.6233 8.26 29.9433 7.948 30.3673 7.7C30.7993 7.444 31.2993 7.316 31.8673 7.316C32.4513 7.316 32.9793 7.456 33.4513 7.736C33.9313 8.016 34.3073 8.412 34.5793 8.924C34.8513 9.428 34.9873 10.016 34.9873 10.688C34.9873 11.352 34.8513 11.944 34.5793 12.464C34.3073 12.984 33.9313 13.388 33.4513 13.676C32.9793 13.964 32.4513 14.108 31.8673 14.108C31.3073 14.108 30.8113 13.984 30.3793 13.736C29.9553 13.48 29.6313 13.164 29.4073 12.788V17.12H28.3153V7.424H29.4073V8.636ZM33.8713 10.688C33.8713 10.192 33.7713 9.76 33.5713 9.392C33.3713 9.024 33.0993 8.744 32.7553 8.552C32.4193 8.36 32.0473 8.264 31.6393 8.264C31.2393 8.264 30.8673 8.364 30.5233 8.564C30.1873 8.756 29.9153 9.04 29.7073 9.416C29.5073 9.784 29.4073 10.212 29.4073 10.7C29.4073 11.196 29.5073 11.632 29.7073 12.008C29.9153 12.376 30.1873 12.66 30.5233 12.86C30.8673 13.052 31.2393 13.148 31.6393 13.148C32.0473 13.148 32.4193 13.052 32.7553 12.86C33.0993 12.66 33.3713 12.376 33.5713 12.008C33.7713 11.632 33.8713 11.192 33.8713 10.688Z" fill="#F5F5F5"/>
</svg>
